<?xml version="1.0" encoding="utf-8"?>
<!-- Generator: Adobe Illustrator 18.1.1, SVG Export Plug-In . SVG Version: 6.00 Build 0)  -->
<svg version="1.1" id="Layer_1" xmlns="http://www.w3.org/2000/svg" xmlns:xlink="http://www.w3.org/1999/xlink" x="0px" y="0px"
	 viewBox="0 0 500 500" enable-background="new 0 0 500 500" xml:space="preserve">
<path fill="none" stroke="#1A1A1A" stroke-width="2" stroke-miterlimit="10" d="M305.1,488.9l27.9-74.2c0,0,32.7,12,54.3,8.8
	c21.6-3.2,24.6-11.5,27.9-16.8c3.1-4.8-0.8-22.4-0.8-22.4s-8-13.6,4.8-20.8s4.8-27.9,4.8-27.9c11.2-4,2.4-29.5,2.4-26.3
	s21.6-10.4,25.5-16s-31.7-78.2-31.7-78.2c4.3-47.4,1.1-108.6,1.1-108.6c3.4-29.5-8.5-35.1-8.5-35.1C308.3-6.1,159.8,32.3,159.8,32.3
	s-86.2,17.6-103,138.9s80.6,160.5,80.6,160.5c1.6,75-55.1,153.3-55.1,153.3L305.1,488.9z"/>
<circle fill="none" stroke="#1A1A1A" stroke-width="2" stroke-miterlimit="10" cx="209.2" cy="207.4" r="66.3"/>
<circle fill="none" stroke="#1A1A1A" stroke-width="2" stroke-miterlimit="10" cx="245.9" cy="150.6" r="66.3"/>
<circle fill="none" stroke="#1A1A1A" stroke-width="2" stroke-miterlimit="10" cx="283.1" cy="208.2" r="66.3"/>
</svg>
