<?xml version="1.0" encoding="UTF-8" standalone="no"?>
<svg width="180px" height="180px" viewBox="0 0 180 180" version="1.1" xmlns="http://www.w3.org/2000/svg" xmlns:xlink="http://www.w3.org/1999/xlink" xmlns:sketch="http://www.bohemiancoding.com/sketch/ns">
    <!-- Generator: Sketch 3.2.2 (9983) - http://www.bohemiancoding.com/sketch -->
    <title>180 - iPhone 6 Plus</title>
    <desc>Created with Sketch.</desc>
    <defs></defs>
    <g id="Page-1" stroke="none" stroke-width="1" fill="none" fill-rule="evenodd" sketch:type="MSPage">
        <g id="180---iPhone-6-Plus" sketch:type="MSArtboardGroup" stroke="#1A1A1A" stroke-width="2">
            <g id="sjs-logo" sketch:type="MSLayerGroup" transform="translate(0.000000, -25.000000)">
                <path d="M115.243651,195.95803 L124.99659,169.9486 C124.99659,169.9486 136.427455,174.154977 143.978117,173.033276 C151.52878,171.911576 152.577483,169.002165 153.731057,167.144349 C154.814716,165.461798 153.451402,159.292445 153.451402,159.292445 C153.451402,159.292445 150.654861,154.525218 155.129327,152.001392 C159.603794,149.477566 156.807252,142.221566 156.807252,142.221566 C160.722411,140.81944 157.646215,131.88089 157.646215,133.00259 C157.646215,134.124291 165.196878,129.357064 166.560192,127.394088 C167.923506,125.431112 155.478895,99.9825321 155.478895,99.9825321 C156.982036,83.3673437 155.86342,61.9148218 155.86342,61.9148218 C157.05195,51.5741455 152.892094,49.6111696 152.892094,49.6111696 C116.362268,22.444986 64.4514623,35.9053918 64.4514623,35.9053918 C64.4514623,35.9053918 34.3187254,42.0747445 28.4459878,84.5942036 C22.5732502,127.113663 56.6211455,140.854494 56.6211455,140.854494 C57.1804539,167.144349 37.3599645,194.590958 37.3599645,194.590958 L115.243651,195.95803 L115.243651,195.95803 Z" id="Shape" sketch:type="MSShapeGroup"></path>
                <ellipse id="Oval" sketch:type="MSShapeGroup" cx="81.7201074" cy="97.2834403" rx="23.1763394" ry="23.240232"></ellipse>
                <ellipse id="Oval" sketch:type="MSShapeGroup" cx="94.5492425" cy="77.3732567" rx="23.1763394" ry="23.240232"></ellipse>
                <ellipse id="Oval" sketch:type="MSShapeGroup" cx="107.553161" cy="97.5638654" rx="23.1763394" ry="23.240232"></ellipse>
            </g>
        </g>
    </g>
</svg>