<?xml version="1.0" encoding="utf-8"?>
<!-- Generator: Adobe Illustrator 18.1.1, SVG Export Plug-In . SVG Version: 6.00 Build 0)  -->
<svg version="1.1" id="Layer_1" xmlns="http://www.w3.org/2000/svg" xmlns:xlink="http://www.w3.org/1999/xlink" x="0px" y="0px"
	 viewBox="0 0 210.9 187.3" enable-background="new 0 0 210.9 187.3" xml:space="preserve">
<g>
	<path fill="#FFFFFF" d="M97.2,138.5c-10.3,0-20.5,0-30.8,0c-5,0-6.5-1.6-6.1-6.4c0.8-12.1,11.8-24,23.6-25.7
		c1.3-0.2,2.5-0.1,3.6,0.5c6.1,3.3,12.2,3.3,18.3,0.1c1.1-0.6,2.3-0.8,3.6-0.6c11.9,1.5,23.4,13.8,24.2,25.8c0.3,5.1-0.7,6.3-6,6.3
		C117.4,138.5,107.3,138.5,97.2,138.5z"/>
	<path fill="#FFFFFF" d="M96.9,56.8c10.3,0.1,19,7.5,20.3,18.2c1.3,10.4-2.1,19.4-9.8,26.5c-6,5.6-13.7,5.8-19.9,0.4
		c-9-7.8-12.7-17.9-10.3-29.7C79.2,62.8,87.2,56.8,96.9,56.8z"/>
	<path fill="#FFFFFF" d="M116.5,48.8c8.1,0.2,13.8,4.1,17.2,11.4c4.8,10.2,0,25.9-9.7,31.8c-1.6,1-3.4,2.5-5.1,1.4
		c-1.9-1.3,0-3.1,0.5-4.6c4.7-14.6,0.5-26-12.6-33.7c-2.5-1.5-2.4-2.5-0.1-3.9C109.7,49.4,112.9,48.6,116.5,48.8z"/>
	<path fill="#FFFFFF" d="M141.7,125c-4.1,1.1-6.4-1.2-8.4-5.5c-3.5-7.6-10-12-17.5-15.1c-1.3-0.5-3.6-0.4-3.4-2.5
		c0.2-1.8,1.7-3.3,3.4-4.1c17.9-8,30.6,5,33.9,17.4C152,123.1,150.5,125,141.7,125z"/>
</g>
</svg>
