<?xml version="1.0" encoding="utf-8"?>
<!-- Generator: Adobe Illustrator 18.1.1, SVG Export Plug-In . SVG Version: 6.00 Build 0)  -->
<svg version="1.1" id="Layer_1" xmlns="http://www.w3.org/2000/svg" xmlns:xlink="http://www.w3.org/1999/xlink" x="0px" y="0px"
	 viewBox="0 0 210.9 187.3" enable-background="new 0 0 210.9 187.3" xml:space="preserve">
<g>
	<path fill="none" stroke="#FFFFFF" stroke-width="4" stroke-miterlimit="10" d="M140.1,149.1H70.8c-6.6,0-12-5.4-12-12V50.2
		c0-6.6,5.4-12,12-12h69.2c6.6,0,12,5.4,12,12v86.9C152.1,143.7,146.7,149.1,140.1,149.1z"/>
	<g>
		<rect x="75.5" y="77.6" fill="#FFFFFF" width="12.4" height="12.4"/>
		<rect x="75.5" y="57.7" fill="#FFFFFF" width="12.4" height="12.4"/>
		<rect x="75.5" y="97.6" fill="#FFFFFF" width="12.4" height="12.4"/>
		<rect x="75.5" y="117.8" fill="#FFFFFF" width="12.4" height="12.4"/>
	</g>
	<path fill="#FFFFFF" d="M130.6,64.7h-32c-0.7,0-1.2-0.6-1.2-1.2l0,0c0-0.7,0.6-1.2,1.2-1.2h32c0.7,0,1.2,0.6,1.2,1.2l0,0
		C131.8,64.2,131.2,64.7,130.6,64.7z"/>
	<path fill="#FFFFFF" d="M130.6,85.1h-32c-0.7,0-1.2-0.6-1.2-1.2v0c0-0.7,0.6-1.2,1.2-1.2h32c0.7,0,1.2,0.6,1.2,1.2v0
		C131.8,84.5,131.2,85.1,130.6,85.1z"/>
	<path fill="#FFFFFF" d="M130.6,105h-32c-0.7,0-1.2-0.6-1.2-1.2l0,0c0-0.7,0.6-1.2,1.2-1.2h32c0.7,0,1.2,0.6,1.2,1.2l0,0
		C131.8,104.5,131.2,105,130.6,105z"/>
	<path fill="#FFFFFF" d="M129.6,125.2h-32c-0.7,0-1.2-0.6-1.2-1.2l0,0c0-0.7,0.6-1.2,1.2-1.2h32c0.7,0,1.2,0.6,1.2,1.2l0,0
		C130.8,124.6,130.3,125.2,129.6,125.2z"/>
</g>
</svg>
