<?xml version="1.0" encoding="utf-8"?>
<!-- Generator: Adobe Illustrator 18.1.1, SVG Export Plug-In . SVG Version: 6.00 Build 0)  -->
<svg version="1.1" id="Layer_1" xmlns="http://www.w3.org/2000/svg" xmlns:xlink="http://www.w3.org/1999/xlink" x="0px" y="0px"
	 viewBox="0 0 210.9 187.3" enable-background="new 0 0 210.9 187.3" xml:space="preserve">
<path fill="none" stroke="#FFFFFF" stroke-width="4" stroke-miterlimit="10" d="M97,136.7H44.4c-6.6,0-12-5.4-12-12v-76
	c0-6.6,5.4-12,12-12h100c6.6,0,12,5.4,12,12v36.5"/>
<g>
	<rect x="87" y="73.1" fill="#FFFFFF" width="14.8" height="14.8"/>
	<rect x="116.7" y="73.1" fill="#FFFFFF" width="14.8" height="14.8"/>
	<rect x="57.2" y="73.1" fill="#FFFFFF" width="14.8" height="14.8"/>
</g>
<rect x="87" y="99.7" fill="#FFFFFF" width="14.8" height="14.8"/>
<rect x="57.2" y="99.7" fill="#FFFFFF" width="14.8" height="14.8"/>
<circle fill="none" stroke="#FFFFFF" stroke-width="4" stroke-miterlimit="10" cx="143.6" cy="129.9" r="35.4"/>
<path fill="#FFFFFF" d="M154.9,131H143v-11.1c0-1.2-0.3-2.1-1.5-2.1s-1.5,0.9-1.5,2.1v12.9c0,1.2,0.9,2.3,2.1,2.3h12.9
	c1.2,0,2.1-0.8,2.1-2S156.1,131,154.9,131z"/>
<path fill="#FFFFFF" d="M64.2,47.3L64.2,47.3c-1.4,0-2.4-1.1-2.4-2.4V24.4c0-1.4,1.1-2.4,2.4-2.4h0c1.4,0,2.4,1.1,2.4,2.4v20.4
	C66.7,46.2,65.6,47.3,64.2,47.3z"/>
<path fill="#FFFFFF" d="M124.8,49.3L124.8,49.3c-1.4,0-2.4-1.1-2.4-2.4V26.4c0-1.4,1.1-2.4,2.4-2.4h0c1.4,0,2.4,1.1,2.4,2.4v20.4
	C127.3,48.2,126.2,49.3,124.8,49.3z"/>
</svg>
