<?xml version="1.0" encoding="utf-8"?>
<!-- Generator: Adobe Illustrator 18.1.1, SVG Export Plug-In . SVG Version: 6.00 Build 0)  -->
<svg version="1.1" id="Layer_1" xmlns="http://www.w3.org/2000/svg" xmlns:xlink="http://www.w3.org/1999/xlink" x="0px" y="0px"
	 viewBox="0 0 210.9 187.3" enable-background="new 0 0 210.9 187.3" xml:space="preserve">
<path fill="#FFFFFF" d="M105.1,152.1c3.3-0.3,6.3-0.6,9.4-1c1-0.1,2.1-0.5,3-0.9c2.4-1.1,2.6-3.1,0.4-4.8c-0.3-0.2-0.6-0.4-0.7-0.5
	c0.9-1,2.3-1.9,2.5-3.1c0.2-1-0.9-2.3-1.6-3.7c-0.2,0.3-0.2,0.2-0.1,0.1c1.3-0.4,2.7-0.9,2.8-2.6c0-1.8-1.5-2.3-2.7-2.6
	c-5.5-1.3-10.9-2.5-16.4-3.5c-3.3-0.6-6.6-0.9-9.9-1.3c-1.2-0.1-1.7-0.6-1.9-1.9c-1.3-7.8-2.6-15.5-4.3-23.2
	c-0.8-3.5-2.5-6.8-4-10.1c-3.2-6.8-6.3-13.6-7.6-21.2c-2.9-17,7.3-32.2,24-35.7c18-3.8,34.4,6.7,38.7,24.9
	c1.6,6.6,0.5,13.1-1.9,19.3c-1.8,4.9-4.1,9.7-6.7,14.3c-4.7,8.4-7.4,17.4-9,26.8c-0.1,0.4-0.1,0.9-0.2,1.3c0,0.2-0.1,0.3-0.2,0.6
	c-4.2,0-8.4,0-12.9,0c-0.3-8.8-0.3-17.5,1.7-26.1c0.1-0.1,0.3-0.2,0.5-0.2c6.4,1.1,12.4-4.8,13.5-10.6c0.6-3.1,0-5.9-1.7-8.5
	c-3-4.4-8.5-4.1-10.6,0.9c-1.5,3.5-2.3,7.3-3.3,11c-0.2,0.7-0.3,1.3-0.6,2.4c-0.8-1-1.5-1.7-2.1-2.6c-1.9-3.2-3.6-6.6-5.5-9.8
	c-1.1-1.8-2.2-3.6-3.5-5.3c-1.1-1.4-2.7-2.1-4.5-1.4c-1.8,0.7-3.1,2.2-3,4.1c0.1,2.1,0.6,4.3,1.5,6.1c2.6,5.4,10.4,12.7,15.7,15.4
	c-0.4,3.5-1,7.1-1.1,10.6c-0.2,5-0.2,10.1-0.2,15.1c0,1.3,0.6,2,1.9,2c5.1,0,10.2,0,15.3,0c1.3,0,1.7-0.7,2-2c1-5,1.8-10.1,3.3-14.9
	c1.5-4.6,3.5-9.1,5.8-13.4c4.1-7.7,7.7-15.5,9.2-24.3c2.8-17.3-10.9-36.8-28.9-39.2c-5.9-0.8-11.7-0.4-17.4,1.3
	c-17,5.2-26.5,22.3-22.6,40.4c1.3,6.1,3.4,12,6.4,17.5c4.5,8.2,6.5,17.1,7.9,26.2c0.5,3.5,1.1,7.1,1.5,10.7c0.2,1.6,0.8,2.2,2.4,2.4
	c7.9,1.1,15.8,2.4,23.7,3.6c0.7,0.1,1.3,0.3,2,0.9c-1.9,0-3.9,0.2-5.8,0c-5.3-0.7-10.6-1.6-15.9-2.4c-0.9-0.1-1.9-0.2-2.7,0.1
	c-0.8,0.3-1.8,1-2,1.8c-0.1,0.6,0.7,1.9,1.3,2.1c2.4,0.7,4.9,1.4,7.4,1.6c3.8,0.3,7.6,0.1,11.4,0.4c2.4,0.2,4.7,1,7,1.8
	c-2.6,0.9-5.2,1.2-7.9,0.7c-4.6-0.8-9.2-1.6-13.8-2.3c-0.9-0.1-1.9-0.2-2.7,0.1c-0.7,0.3-1.7,1.1-1.8,1.7c0,0.7,0.8,1.8,1.4,2
	c2.5,0.7,5.2,1.2,7.8,1.5c2.7,0.3,5.4,0.2,8.1,0.5c2.8,0.3,5.5,1,8.2,1.6c0,0.3,0,0.5,0,0.8c-1.1,0.2-2.2,0.5-3.3,0.6
	c-2.3,0.2-4.5,0.3-6.8,0.4c-3.1,0.1-6.1-0.1-8.9-1.9c-1-0.7-2.3-1.1-3.5-1.1c-0.8,0-2.1,0.7-2.4,1.4c-0.2,0.7,0.3,2,0.9,2.7
	c0.6,0.6,1.6,1,2.5,1.1c3.6,0.4,6.7,1.7,9.6,3.9c0.4,0.3,1.6,0.2,2.1-0.1c0.3-0.2,0.1-1.3,0.1-2
	C105.6,152.5,105.3,152.3,105.1,152.1z M108.2,93.7c0.5-2.1,0.9-4,1.4-6c0.7-2.5,1.3-5,2.3-7.3c0.4-1,1.7-2.1,2.6-2.2
	c1-0.1,2.2,0.9,2.9,1.8c1.3,1.8,1.6,3.9,1,6.1C117.3,91.1,112.6,94.7,108.2,93.7z M102.2,94.1c-4.6-3.5-9.2-7.5-11.9-13.3
	c-0.4-0.8-0.6-1.8-0.6-2.7c0-0.6,0.5-1.5,1-1.8c0.3-0.2,1.2,0.4,1.6,0.8c0.8,0.9,1.5,2,2.1,3.1C97.1,84.9,99.7,89.7,102.2,94.1z"/>
</svg>
