<?xml version="1.0" encoding="utf-8"?>
<!-- Generator: Adobe Illustrator 18.1.1, SVG Export Plug-In . SVG Version: 6.00 Build 0)  -->
<svg version="1.1" id="Layer_1" xmlns="http://www.w3.org/2000/svg" xmlns:xlink="http://www.w3.org/1999/xlink" x="0px" y="0px"
	 viewBox="0 0 210.9 187.3" enable-background="new 0 0 210.9 187.3" xml:space="preserve">
<g>
	<path fill="#FFFFFF" d="M169.3,87.9c-2.6,6.8-5.1,13.6-7.7,20.4c-2.3,6.3-4.6,12.7-6.9,19.1c-0.5,1.5-1.1,2.3-3,2.3
		c-26.1-0.1-52.2,0-78.2-0.1c-0.5,0-1-0.1-1.8-0.2c2.5-6.7,4.9-13.2,7.3-19.6c2.6-6.9,5.2-13.8,7.8-20.7c1.7-4.5,5.4-7.1,10.2-7.1
		c21.9,0,43.8,0,65.7-0.1c2.7,0,4.8,0.6,6.5,2.7C169.3,85.7,169.3,86.8,169.3,87.9z"/>
	<path fill="#FFFFFF" d="M62.3,62.6c1.9-3.9,5.2-5,9.4-4.9c7.5,0.2,15,0.1,22.4,0c1.7,0,2.6,0.5,3.2,2c1.4,3.1,3.2,6,4.5,9.1
		c0.9,2.2,2.3,2.7,4.5,2.7c14.6-0.1,29.2-0.1,43.8,0c4.6,0,7,2.1,7.3,6.7c-1,0-1.9,0-2.8,0c-18.2,0-36.3,0-54.5,0
		c-9,0-14.9,4.1-18.1,12.6c-4.1,10.9-8.2,21.8-12.3,32.7c-0.3,0.7-0.6,1.4-0.9,2.2c-3.5,0.1-5-2.3-6.5-4.8
		C62.3,101.4,62.3,82,62.3,62.6z"/>
</g>
</svg>
