<?xml version="1.0" encoding="utf-8"?>
<!-- Generator: Adobe Illustrator 18.1.1, SVG Export Plug-In . SVG Version: 6.00 Build 0)  -->
<svg version="1.1" id="Layer_1" xmlns="http://www.w3.org/2000/svg" xmlns:xlink="http://www.w3.org/1999/xlink" x="0px" y="0px"
	 viewBox="0 0 210.9 187.3" enable-background="new 0 0 210.9 187.3" xml:space="preserve">
<g>
	<path fill="none" stroke="#FFFFFF" stroke-width="4" stroke-miterlimit="10" d="M81.4,38.5H143c5.5,0,10,4.5,10,10v90.3
		c0,5.5-4.5,10-10,10H70.2c-5.5,0-10-4.5-10-10v-78L81.4,38.5z"/>
	<path fill="#FFFFFF" d="M132.5,72.4H80.6c-0.7,0-1.2-0.5-1.2-1.2v0c0-0.7,0.5-1.2,1.2-1.2h51.9c0.7,0,1.2,0.5,1.2,1.2v0
		C133.8,71.8,133.2,72.4,132.5,72.4z"/>
	<path fill="#FFFFFF" d="M132.5,92.6H80.6c-0.7,0-1.2-0.5-1.2-1.2l0,0c0-0.7,0.5-1.2,1.2-1.2h51.9c0.7,0,1.2,0.5,1.2,1.2l0,0
		C133.8,92.1,133.2,92.6,132.5,92.6z"/>
	<path fill="#FFFFFF" d="M132.5,112.5H80.6c-0.7,0-1.2-0.5-1.2-1.2v0c0-0.7,0.5-1.2,1.2-1.2h51.9c0.7,0,1.2,0.5,1.2,1.2v0
		C133.8,111.9,133.2,112.5,132.5,112.5z"/>
	<path fill="#FFFFFF" d="M132.5,132.5H80.6c-0.7,0-1.2-0.5-1.2-1.2l0,0c0-0.7,0.5-1.2,1.2-1.2h51.9c0.7,0,1.2,0.5,1.2,1.2l0,0
		C133.8,132,133.2,132.5,132.5,132.5z"/>
	<path fill="#FFFFFF" d="M132.5,82.4H80.6c-0.7,0-1.2-0.5-1.2-1.2l0,0c0-0.7,0.5-1.2,1.2-1.2h51.9c0.7,0,1.2,0.5,1.2,1.2l0,0
		C133.8,81.9,133.2,82.4,132.5,82.4z"/>
	<path fill="#FFFFFF" d="M132.5,102.6H80.6c-0.7,0-1.2-0.5-1.2-1.2v0c0-0.7,0.5-1.2,1.2-1.2h51.9c0.7,0,1.2,0.5,1.2,1.2v0
		C133.8,102.1,133.2,102.6,132.5,102.6z"/>
	<path fill="#FFFFFF" d="M132.5,122.5H80.6c-0.7,0-1.2-0.5-1.2-1.2l0,0c0-0.7,0.5-1.2,1.2-1.2h51.9c0.7,0,1.2,0.5,1.2,1.2l0,0
		C133.8,121.9,133.2,122.5,132.5,122.5z"/>
	<path fill="none" stroke="#FFFFFF" stroke-width="4" stroke-miterlimit="10" d="M81.4,39.1V54c0,3.7-3,6.7-6.7,6.7H61.3"/>
	<path fill="none" stroke="#5D5D5D" stroke-width="4" stroke-miterlimit="10" d="M57.9,41.8"/>
</g>
</svg>
